<svg width="1440" height="960" viewBox="0 0 1440 960" fill="none" xmlns="http://www.w3.org/2000/svg">
  <defs>
    <linearGradient id="zup-bg" x1="180" y1="96" x2="1268" y2="960" gradientUnits="userSpaceOnUse">
      <stop stop-color="#071019"/>
      <stop offset="1" stop-color="#0E1823"/>
    </linearGradient>
    <radialGradient id="zup-glow-a" cx="0" cy="0" r="1" gradientUnits="userSpaceOnUse" gradientTransform="translate(1148 212) rotate(128.387) scale(420 420)">
      <stop stop-color="#22E0D6" stop-opacity="0.34"/>
      <stop offset="1" stop-color="#22E0D6" stop-opacity="0"/>
    </radialGradient>
    <radialGradient id="zup-glow-b" cx="0" cy="0" r="1" gradientUnits="userSpaceOnUse" gradientTransform="translate(264 808) rotate(37.875) scale(356 356)">
      <stop stop-color="#203A5A" stop-opacity="0.62"/>
      <stop offset="1" stop-color="#203A5A" stop-opacity="0"/>
    </radialGradient>
    <linearGradient id="zup-panel" x1="468" y1="208" x2="996" y2="784" gradientUnits="userSpaceOnUse">
      <stop stop-color="#132433" stop-opacity="0.92"/>
      <stop offset="1" stop-color="#0B151F" stop-opacity="0.76"/>
    </linearGradient>
    <linearGradient id="zup-panel-stroke" x1="522" y1="188" x2="934" y2="774" gradientUnits="userSpaceOnUse">
      <stop stop-color="#8FC5DA" stop-opacity="0.38"/>
      <stop offset="1" stop-color="#8FC5DA" stop-opacity="0.08"/>
    </linearGradient>
    <linearGradient id="zup-line-a" x1="190" y1="355" x2="1258" y2="312" gradientUnits="userSpaceOnUse">
      <stop stop-color="#4A6E90" stop-opacity="0.2"/>
      <stop offset="0.45" stop-color="#8DC3E6" stop-opacity="0.54"/>
      <stop offset="1" stop-color="#48E6DA" stop-opacity="0.22"/>
    </linearGradient>
    <linearGradient id="zup-line-b" x1="208" y1="618" x2="1224" y2="562" gradientUnits="userSpaceOnUse">
      <stop stop-color="#28445F" stop-opacity="0.12"/>
      <stop offset="0.58" stop-color="#4AB8D1" stop-opacity="0.38"/>
      <stop offset="1" stop-color="#B9EBD3" stop-opacity="0.18"/>
    </linearGradient>
    <pattern id="zup-grid" width="72" height="72" patternUnits="userSpaceOnUse">
      <path d="M72 0H0V72" stroke="#183045" stroke-opacity="0.42" stroke-width="1"/>
      <circle cx="72" cy="72" r="1.8" fill="#1D3B52" fill-opacity="0.6"/>
    </pattern>
    <filter id="zup-blur" x="-200" y="-200" width="1840" height="1360" filterUnits="userSpaceOnUse" color-interpolation-filters="sRGB">
      <feGaussianBlur stdDeviation="64"/>
    </filter>
    <clipPath id="zup-mark-clip">
      <path d="M-240 -180H240V-92H-44L220 120V180H-240V92H44L-240 -120V-180Z"/>
    </clipPath>
  </defs>

  <rect width="1440" height="960" fill="url(#zup-bg)"/>
  <rect width="1440" height="960" fill="url(#zup-grid)" opacity="0.44"/>
  <g filter="url(#zup-blur)">
    <circle cx="1148" cy="212" r="262" fill="url(#zup-glow-a)"/>
    <circle cx="264" cy="808" r="232" fill="url(#zup-glow-b)"/>
  </g>

  <g opacity="0.82">
    <path d="M188 350L362 332L510 370L694 282L884 324L1068 248L1252 298" stroke="url(#zup-line-a)" stroke-width="8" stroke-linecap="round" stroke-linejoin="round"/>
    <path d="M220 608L382 590L558 632L752 546L944 602L1114 528L1230 566" stroke="url(#zup-line-b)" stroke-width="4" stroke-linecap="round" stroke-linejoin="round"/>
    <circle cx="362" cy="332" r="8" fill="#85B7D5"/>
    <circle cx="694" cy="282" r="8" fill="#95DAD8"/>
    <circle cx="1068" cy="248" r="8" fill="#42DDD4"/>
    <circle cx="558" cy="632" r="6" fill="#4FAFC7"/>
    <circle cx="944" cy="602" r="6" fill="#9EDBC6"/>
  </g>

  <g transform="translate(720 488)">
    <rect x="-294" y="-270" width="588" height="540" rx="128" fill="url(#zup-panel)"/>
    <rect x="-293" y="-269" width="586" height="538" rx="127" stroke="url(#zup-panel-stroke)" stroke-width="2"/>
    <rect x="-150" y="-218" width="318" height="56" rx="28" fill="#F4FBFF" fill-opacity="0.05"/>
    <circle cx="192" cy="-188" r="74" stroke="#D7EEF4" stroke-opacity="0.16" stroke-width="2"/>
    <circle cx="-210" cy="190" r="42" fill="#E8FBF8" fill-opacity="0.06"/>

    <g clip-path="url(#zup-mark-clip)">
      <polygon points="-330,-256 44,-256 -136,24 -468,24" fill="#F3ED95"/>
      <polygon points="18,-256 368,-256 194,24 -150,24" fill="#889EB3"/>
      <polygon points="-276,24 76,24 -116,306 -432,306" fill="#6AC2CB"/>
      <polygon points="74,24 432,24 240,306 -88,306" fill="#1E4661"/>
      <rect x="-340" y="-28" width="760" height="56" fill="#08121A" fill-opacity="0.2"/>
    </g>

    <path d="M-240 -180H240V-92H-44L220 120V180H-240V92H44L-240 -120V-180Z" stroke="#F3FBFF" stroke-opacity="0.14" stroke-width="18" stroke-linejoin="round"/>
    <path d="M-238 -176H238V-96H-58L206 118V176H-238V96H56L-238 -118V-176Z" stroke="#08131C" stroke-opacity="0.22" stroke-width="4" stroke-linejoin="round"/>
  </g>
</svg>
