<svg width="512" height="512" viewBox="0 0 512 512" fill="none" xmlns="http://www.w3.org/2000/svg">
  <rect width="512" height="512" rx="112" fill="#F5F1EA"/>
  <rect x="36" y="36" width="440" height="440" rx="92" fill="url(#panel)" stroke="#DCCDF1" stroke-width="8"/>
  <path d="M132 160C132 142.327 146.327 128 164 128H348C365.673 128 380 142.327 380 160V352C380 369.673 365.673 384 348 384H164C146.327 384 132 369.673 132 352V160Z" fill="#FFFDF9"/>
  <path d="M164 128H348C365.673 128 380 142.327 380 160V180H132V160C132 142.327 146.327 128 164 128Z" fill="#5A2D91"/>
  <circle cx="162" cy="154" r="10" fill="#F5F1EA" fill-opacity="0.9"/>
  <circle cx="192" cy="154" r="10" fill="#F5F1EA" fill-opacity="0.72"/>
  <circle cx="222" cy="154" r="10" fill="#F5F1EA" fill-opacity="0.5"/>
  <path d="M186.813 322C168.456 322 154 307.202 154 289.013V223.987C154 205.798 168.456 191 186.813 191H235.687C254.044 191 268.5 205.798 268.5 223.987V289.013C268.5 307.202 254.044 322 235.687 322H186.813ZM186.813 296.955H235.687C239.994 296.955 243.375 293.499 243.375 289.013V223.987C243.375 219.501 239.994 216.045 235.687 216.045H186.813C182.506 216.045 179.125 219.501 179.125 223.987V289.013C179.125 293.499 182.506 296.955 186.813 296.955Z" fill="#211A29"/>
  <path d="M316.886 322C287.916 322 266.25 300.166 266.25 270.955C266.25 241.744 287.916 220.077 316.886 220.077C335.578 220.077 351.286 228.515 359 241.488L339.325 255.799C334.864 248.578 326.504 243.788 316.886 243.788C301.925 243.788 291.375 255.185 291.375 270.955C291.375 286.725 301.925 298.122 316.886 298.122C328.201 298.122 337.975 291.363 341.663 281.363H316.886V259.955H366V271.609C365.693 300.676 343.566 322 316.886 322Z" fill="#5A2D91"/>
  <path d="M160 351C160 344.373 165.373 339 172 339H340C346.627 339 352 344.373 352 351C352 357.627 346.627 363 340 363H172C165.373 363 160 357.627 160 351Z" fill="#EDE6F8"/>
  <defs>
    <linearGradient id="panel" x1="84" y1="64" x2="432" y2="448" gradientUnits="userSpaceOnUse">
      <stop stop-color="#FFFFFF"/>
      <stop offset="1" stop-color="#F3EBFE"/>
    </linearGradient>
  </defs>
</svg>
