<svg width="1440" height="960" viewBox="0 0 1440 960" fill="none" xmlns="http://www.w3.org/2000/svg">
  <defs>
    <linearGradient id="envolve-bg" x1="184" y1="98" x2="1244" y2="954" gradientUnits="userSpaceOnUse">
      <stop stop-color="#0F0B0A"/>
      <stop offset="1" stop-color="#1A1412"/>
    </linearGradient>
    <radialGradient id="envolve-gold" cx="0" cy="0" r="1" gradientUnits="userSpaceOnUse" gradientTransform="translate(278 228) rotate(48.814) scale(352 352)">
      <stop stop-color="#F2E131" stop-opacity="0.34"/>
      <stop offset="1" stop-color="#F2E131" stop-opacity="0"/>
    </radialGradient>
    <radialGradient id="envolve-red" cx="0" cy="0" r="1" gradientUnits="userSpaceOnUse" gradientTransform="translate(1186 740) rotate(148.781) scale(428 428)">
      <stop stop-color="#F94545" stop-opacity="0.3"/>
      <stop offset="1" stop-color="#F94545" stop-opacity="0"/>
    </radialGradient>
    <radialGradient id="envolve-cool" cx="0" cy="0" r="1" gradientUnits="userSpaceOnUse" gradientTransform="translate(1058 242) rotate(129.092) scale(220 220)">
      <stop stop-color="#55C8FF" stop-opacity="0.12"/>
      <stop offset="1" stop-color="#55C8FF" stop-opacity="0"/>
    </radialGradient>
    <linearGradient id="envolve-panel" x1="454" y1="214" x2="1004" y2="786" gradientUnits="userSpaceOnUse">
      <stop stop-color="#1A1412" stop-opacity="0.92"/>
      <stop offset="1" stop-color="#120F0D" stop-opacity="0.76"/>
    </linearGradient>
    <linearGradient id="envolve-panel-stroke" x1="506" y1="204" x2="930" y2="768" gradientUnits="userSpaceOnUse">
      <stop stop-color="#E9D38E" stop-opacity="0.34"/>
      <stop offset="1" stop-color="#E9D38E" stop-opacity="0.08"/>
    </linearGradient>
    <linearGradient id="envolve-chevron" x1="398" y1="224" x2="940" y2="592" gradientUnits="userSpaceOnUse">
      <stop stop-color="#FF675A"/>
      <stop offset="1" stop-color="#C73737"/>
    </linearGradient>
    <linearGradient id="envolve-bar" x1="494" y1="290" x2="898" y2="640" gradientUnits="userSpaceOnUse">
      <stop stop-color="#F2E131"/>
      <stop offset="1" stop-color="#C2B427"/>
    </linearGradient>
    <linearGradient id="envolve-ring" x1="742" y1="318" x2="978" y2="632" gradientUnits="userSpaceOnUse">
      <stop stop-color="#FFF3A0"/>
      <stop offset="1" stop-color="#D9C244"/>
    </linearGradient>
    <pattern id="envolve-grid" width="64" height="64" patternUnits="userSpaceOnUse">
      <circle cx="4" cy="4" r="1.5" fill="#4E3A2E" fill-opacity="0.42"/>
    </pattern>
    <filter id="envolve-blur" x="-200" y="-200" width="1840" height="1360" filterUnits="userSpaceOnUse" color-interpolation-filters="sRGB">
      <feGaussianBlur stdDeviation="72"/>
    </filter>
  </defs>

  <rect width="1440" height="960" fill="url(#envolve-bg)"/>
  <rect width="1440" height="960" fill="url(#envolve-grid)" opacity="0.4"/>
  <g filter="url(#envolve-blur)">
    <circle cx="278" cy="228" r="248" fill="url(#envolve-gold)"/>
    <circle cx="1186" cy="740" r="256" fill="url(#envolve-red)"/>
    <circle cx="1058" cy="242" r="164" fill="url(#envolve-cool)"/>
  </g>

  <g opacity="0.65">
    <path d="M212 706C306 670 410 652 524 652C664 652 798 684 926 684C1020 684 1112 666 1202 630" stroke="#5EC3F3" stroke-opacity="0.2" stroke-width="3" stroke-linecap="round"/>
    <path d="M242 736C332 702 442 688 572 688C714 688 852 720 972 720C1060 720 1138 702 1206 670" stroke="#F1D65C" stroke-opacity="0.14" stroke-width="2" stroke-linecap="round"/>
    <circle cx="524" cy="652" r="5" fill="#F2E131" fill-opacity="0.38"/>
    <circle cx="926" cy="684" r="5" fill="#FF7A65" fill-opacity="0.38"/>
  </g>

  <g transform="translate(720 480)">
    <rect x="-290" y="-264" width="580" height="528" rx="124" fill="url(#envolve-panel)"/>
    <rect x="-289" y="-263" width="578" height="526" rx="123" stroke="url(#envolve-panel-stroke)" stroke-width="2"/>
    <rect x="-212" y="98" width="318" height="104" rx="44" fill="#FFFFFF" fill-opacity="0.035"/>
    <rect x="34" y="-200" width="176" height="56" rx="28" fill="#FFFFFF" fill-opacity="0.045"/>

    <path d="M-252 -170L-8 -118L138 -8L38 54L-252 -6V-170Z" fill="url(#envolve-chevron)" fill-opacity="0.94"/>
    <path d="M-226 -54L10 -8L148 94L22 138L-226 82V-54Z" fill="url(#envolve-chevron)" fill-opacity="0.74"/>

    <path d="M-230 -118H6L66 -82H-230V-118Z" fill="url(#envolve-bar)"/>
    <path d="M-246 -22H72L136 18H-246V-22Z" fill="url(#envolve-bar)"/>
    <path d="M-230 74H6L66 110H-230V74Z" fill="url(#envolve-bar)"/>

    <circle cx="132" cy="-2" r="104" stroke="url(#envolve-ring)" stroke-width="46"/>
    <path d="M190 -128C246 -100 280 -48 280 10C280 52 262 92 230 122" stroke="#F45E4F" stroke-width="24" stroke-linecap="round" stroke-opacity="0.9"/>
    <circle cx="132" cy="-2" r="36" fill="#16100F"/>
    <circle cx="132" cy="-2" r="12" fill="#F2E131" fill-opacity="0.82"/>
  </g>
</svg>
