<svg width="84" height="26" viewBox="0 0 84 26" fill="none" xmlns="http://www.w3.org/2000/svg">
<g clip-path="url(#clip0_1361_817)">
<g clip-path="url(#clip1_1361_817)">
<path d="M48.7554 13.8667C48.8548 14.8827 49.2303 15.6834 49.8764 16.2687C50.5225 16.854 51.406 17.1467 52.5326 17.1467C53.3112 17.1467 54.0015 16.9976 54.5923 16.6939C55.1832 16.3957 55.6415 15.9816 55.9674 15.457H59.0211C58.5462 16.6497 57.7289 17.6381 56.5582 18.4112C55.393 19.1843 54.0512 19.5763 52.5326 19.5763C50.3623 19.5763 48.6505 18.9358 47.4024 17.6547C46.1544 16.3736 45.5249 14.7392 45.5249 12.7458C45.5249 10.78 46.1655 9.15659 47.4466 7.87C48.7278 6.58341 50.3679 5.94287 52.3669 5.94287C54.3825 5.94287 56.0281 6.58341 57.2927 7.86447C58.5573 9.14554 59.1923 10.7911 59.1923 12.7955V13.8612L48.7554 13.8667ZM52.4332 8.29518C51.406 8.29518 50.5722 8.59888 49.9206 9.20628C49.2745 9.81369 48.8769 10.6475 48.7333 11.7022H56.0668C55.9674 10.6751 55.5918 9.85234 54.9458 9.22837C54.3052 8.60993 53.4658 8.29518 52.4332 8.29518Z" fill="#11181C"/>
<path d="M43.6363 9.34449C43.0841 8.30638 42.3055 7.4781 41.2949 6.86518C40.2844 6.25225 39.1523 5.94303 37.8988 5.94303C36.8054 5.94303 35.85 6.18599 35.0272 6.66639C34.2044 7.14679 33.6246 7.75972 33.2877 8.49964V0.25H30.0076V19.0906V19.2562V19.5765H33.1607V19.0906V17.0199C33.5859 17.7487 34.2099 18.3561 35.0438 18.8421C35.8721 19.328 36.8275 19.571 37.9043 19.571C39.1578 19.571 40.2899 19.2673 41.3004 18.6543C42.311 18.0414 43.0896 17.2242 43.6418 16.1861C44.1941 15.1535 44.4702 14.0105 44.4702 12.768C44.4647 11.5256 44.1885 10.3826 43.6363 9.34449ZM40.0856 15.6836C39.3511 16.4732 38.4068 16.8652 37.2582 16.8652C36.1482 16.8652 35.2095 16.4898 34.4419 15.7333C33.6743 14.9768 33.2933 13.9939 33.2933 12.7736C33.2933 11.5532 33.6743 10.5593 34.4419 9.79728C35.2095 9.03526 36.1482 8.65426 37.2582 8.65426C38.4123 8.65426 39.3511 9.05183 40.0856 9.84698C40.82 10.6421 41.1845 11.6195 41.1845 12.7736C41.1845 13.9276 40.8145 14.8939 40.0856 15.6836Z" fill="#11181C"/>
<path d="M13.4134 15.6394C12.447 16.2413 11.2653 16.5395 9.87919 16.5395C7.92434 16.5395 6.36708 15.91 5.2019 14.651C4.03672 13.392 3.45137 11.8128 3.45137 9.90219C3.45137 7.99163 4.03672 6.40686 5.2019 5.1534C6.36708 3.89442 7.92986 3.26493 9.87919 3.26493C11.2708 3.26493 12.4525 3.56311 13.4189 4.16499C14.3853 4.76135 14.932 5.58963 15.44 6.64982L17.8698 4.22021C17.6765 3.94964 17.4667 3.68459 17.2458 3.43059C16.423 2.48083 15.3682 1.71329 14.0871 1.12245C12.8115 0.542658 11.4144 0.25 9.90128 0.25C8.44342 0.25 7.09049 0.504005 5.84247 1.00649C4.59446 1.50898 3.55077 2.19921 2.70035 3.07167C1.84993 3.9386 1.18727 4.96566 0.712362 6.14181C0.237454 7.31797 0 8.57695 0 9.90772C0 11.2385 0.237454 12.4975 0.712362 13.6791C1.18727 14.8608 1.84993 15.8879 2.70035 16.7548C3.55077 17.6217 4.59998 18.312 5.84247 18.8145C7.08497 19.3225 8.4379 19.571 9.90128 19.571C11.0444 19.571 12.1212 19.3998 13.1428 19.0629C14.1644 18.7261 15.059 18.2623 15.8266 17.677C16.2684 17.3401 16.6715 16.9757 17.0415 16.5781L15.6333 13.1435C15.1197 14.2092 14.3853 15.043 13.4134 15.6394Z" fill="#11181C"/>
<path d="M26.2525 5.94287L22.5747 16.0258L19.1068 6.66071L16.5114 9.2615L20.7358 19.5377L18.1625 25.9982H21.8679L24.2203 19.9408L29.9744 5.94287H26.2525Z" fill="#11181C"/>
<path d="M70.9932 0.25C66.9509 0.25 63.345 2.11639 60.9815 5.0264H61.1085H62.4614H68.6683C70.2974 5.0264 71.6558 5.57306 72.7492 6.67191C73.8371 7.77076 74.3838 9.12914 74.3838 10.7526C74.3838 11.9398 74.0801 13 73.4726 13.9276C72.8652 14.8553 72.0479 15.54 71.0153 15.9762L75.2232 20.5428H70.1483L66.4319 16.4401H64.8856V20.5373H61.1085H60.4679C62.7983 23.8393 66.6417 25.9984 70.9932 25.9984C78.1058 25.9984 83.8709 20.2336 83.8709 13.1214C83.8709 6.00929 78.1058 0.25 70.9932 0.25Z" fill="url(#paint0_linear_1361_817)"/>
<path d="M65.438 6.70489C64.5599 7.2129 64.0022 7.98043 63.7592 9.00198V6.15822V5.94839H60.4735V6.15822V19.5763H63.8586V13.5465C63.8586 12.1715 64.1844 11.1224 64.8416 10.3935C65.4987 9.6646 66.4982 9.30568 67.8346 9.30568H68.569V5.94287C67.3597 5.94287 66.316 6.19688 65.438 6.70489Z" fill="#11181C"/>
</g>
</g>
<defs>
<linearGradient id="paint0_linear_1361_817" x1="61.8908" y1="4.01905" x2="80.0984" y2="22.2278" gradientUnits="userSpaceOnUse">
<stop stop-color="#4300BB"/>
<stop offset="0.1816" stop-color="#4203BC"/>
<stop offset="0.3342" stop-color="#3E0EBF"/>
<stop offset="0.4762" stop-color="#371FC4"/>
<stop offset="0.6119" stop-color="#2E38CC"/>
<stop offset="0.743" stop-color="#2157D5"/>
<stop offset="0.8708" stop-color="#127EE1"/>
<stop offset="0.9936" stop-color="#01ABEE"/>
<stop offset="1" stop-color="#00AEEF"/>
</linearGradient>
<clipPath id="clip0_1361_817">
<rect width="83.871" height="26" fill="white"/>
</clipPath>
<clipPath id="clip1_1361_817">
<rect width="83.871" height="25.7484" fill="white" transform="translate(0 0.25)"/>
</clipPath>
</defs>
</svg>
