<?xml version="1.0" encoding="UTF-8" standalone="no"?>
<svg xmlns="http://www.w3.org/2000/svg"
   xmlns:dc="http://purl.org/dc/elements/1.1/"
   xmlns:cc="http://creativecommons.org/ns#"
   xmlns:rdf="http://www.w3.org/1999/02/22-rdf-syntax-ns#"
   width="199.99998" height="25.733969">
  <title>Magazine Luiza</title>
  <metadata>
    <rdf:RDF>
      <cc:Work rdf:about="">
        <dc:format>image/svg+xml</dc:format>
        <dc:type rdf:resource="http://purl.org/dc/dcmitype/StillImage"/>
        <dc:title>Magazine Luiza</dc:title>
        <cc:license rdf:resource="http://creativecommons.org/licenses/by-sa/3.0/"/>
      </cc:Work>
      <cc:License rdf:about="http://creativecommons.org/licenses/by-sa/3.0/">
        <cc:permits
           rdf:resource="http://creativecommons.org/ns#Reproduction" />
        <cc:permits
           rdf:resource="http://creativecommons.org/ns#Distribution" />
        <cc:requires
           rdf:resource="http://creativecommons.org/ns#Notice" />
        <cc:requires
           rdf:resource="http://creativecommons.org/ns#Attribution" />
        <cc:permits
           rdf:resource="http://creativecommons.org/ns#DerivativeWorks" />
        <cc:requires
           rdf:resource="http://creativecommons.org/ns#ShareAlike" />
      </cc:License>
    </rdf:RDF>
  </metadata>
  <g transform="translate(-170.05782,-516.19494)">
    <g style="fill:#097db6;fill-opacity:1;stroke:none">
      <path
         d="m 170.05782,536.72144 5.69222,0 0,-8.07836 c -0.01,-0.79057 0.13176,-1.43023 0.42405,-1.91897 0.29227,-0.48871 0.79297,-0.74026 1.50211,-0.75465 0.8325,0.0234 1.35956,0.29289 1.58117,0.80856 0.22159,0.51569 0.31742,1.13737 0.28749,1.86506 l 0,8.07836 5.69222,0 0,-8.07836 c -0.01,-0.79057 0.13175,-1.43023 0.42404,-1.91897 0.29226,-0.48871 0.79296,-0.74026 1.50211,-0.75465 0.8325,0.0234 1.35955,0.29289 1.58118,0.80856 0.22158,0.51569 0.31741,1.13737 0.28748,1.86506 l 0,8.07836 5.69222,0 0,-10.2345 c 0.0257,-1.26732 -0.3492,-2.41247 -1.12479,-3.43546 -0.77564,-1.02295 -2.10645,-1.56439 -3.99246,-1.62429 -1.82016,0.0863 -3.10307,0.4528 -3.84871,1.09963 -0.74569,0.64686 -1.15895,1.05652 -1.23979,1.229 -0.36895,-0.75104 -0.92476,-1.32601 -1.66741,-1.72491 -0.74269,-0.39887 -1.52848,-0.60011 -2.35739,-0.60372 -1.03735,-0.01 -1.96689,0.16771 -2.78861,0.53185 -0.82174,0.36416 -1.52129,0.97267 -2.09865,1.82553 l -0.0575,0 0,-1.98365 -5.49098,0 z"
         style="fill:#097db6;fill-opacity:1;stroke:none" />
      <path
         d="m 205.95482,531.40295 c -0.0563,0.77621 -0.30307,1.35837 -0.74028,1.74647 -0.43722,0.38811 -0.98584,0.58217 -1.64585,0.58216 -0.52707,-0.0144 -0.9535,-0.15811 -1.27931,-0.43123 -0.32583,-0.2731 -0.49353,-0.58934 -0.5031,-0.9487 0.001,-0.48932 0.1641,-0.84748 0.48872,-1.07448 0.32461,-0.22699 0.80376,-0.40547 1.43743,-0.53544 0.3899,-0.0838 0.77441,-0.18207 1.15354,-0.29467 0.37911,-0.1126 0.74206,-0.25394 1.08885,-0.42405 z m 5.46223,-4.1398 c 0.0447,-0.97709 -0.0383,-1.90733 -0.24915,-2.79074 -0.21084,-0.88339 -0.81775,-1.60707 -1.82075,-2.17105 -1.00301,-0.56396 -2.67043,-0.85535 -5.00225,-0.87417 -0.88942,-0.007 -1.77703,0.0503 -2.66284,0.17249 -0.88582,0.1222 -1.69437,0.35218 -2.42566,0.68997 -0.74387,0.3384 -1.34759,0.83312 -1.81116,1.48414 -0.46357,0.65105 -0.72231,1.49793 -0.77621,2.54066 l 5.28974,0 c -0.008,-0.34018 0.13056,-0.67319 0.41685,-0.99902 0.28628,-0.3258 0.85646,-0.50069 1.71054,-0.52466 0.48033,-0.005 0.90677,0.0988 1.27931,0.31264 0.37253,0.21383 0.56898,0.5696 0.58935,1.06729 -0.0162,0.46119 -0.17789,0.78221 -0.48513,0.96308 -0.30726,0.18089 -0.66302,0.30067 -1.06729,0.35936 -1.0181,0.14748 -2.17621,0.3189 -3.47432,0.51428 -1.29813,0.19539 -2.43494,0.62236 -3.41044,1.28091 -0.9755,0.65856 -1.48836,1.75633 -1.53858,3.29331 0.0395,1.55901 0.557,2.70297 1.55243,3.43186 0.99541,0.7289 2.2316,1.08945 3.70856,1.08167 0.92953,0.012 1.80876,-0.1126 2.63769,-0.37373 0.8289,-0.26114 1.55001,-0.7307 2.16333,-1.40869 l 0.0575,0 c -0.0132,0.20963 -0.001,0.44441 0.0359,0.70434 0.0371,0.25994 0.0922,0.49472 0.1653,0.70435 l 5.80722,0 c -0.30547,-0.48394 -0.49952,-1.01818 -0.58216,-1.60274 -0.0827,-0.58455 -0.1186,-1.16192 -0.10781,-1.7321 z"
         style="fill:#097db6;fill-opacity:1;stroke:none" />
      <path
         d="m 218.31918,528.52809 c -10e-6,-0.81514 0.20123,-1.5063 0.60372,-2.07349 0.40247,-0.56718 1.00619,-0.86305 1.81116,-0.88762 0.8325,0.0198 1.45299,0.30367 1.86147,0.85168 0.40846,0.54803 0.61209,1.24159 0.61091,2.08068 0.0341,0.88283 -0.0916,1.70456 -0.37733,2.46519 -0.2857,0.76065 -0.93614,1.16552 -1.95131,1.21463 -0.99962,-0.0461 -1.6812,-0.4426 -2.04474,-1.18947 -0.36356,-0.74686 -0.53485,-1.56739 -0.51388,-2.4616 z m 10.43573,-6.72717 -5.69222,0 0,1.81116 -0.0575,0 c -0.34799,-0.75763 -0.87385,-1.31224 -1.57758,-1.66382 -0.70375,-0.35156 -1.48116,-0.52525 -2.33223,-0.52107 -2.131,0.0545 -3.74091,0.75766 -4.82976,2.10942 -1.08886,1.3518 -1.63508,3.0252 -1.63867,5.02023 -0.009,2.05133 0.50489,3.76307 1.54164,5.13521 1.03674,1.37215 2.65026,2.08488 4.84054,2.13818 0.85107,-0.004 1.61411,-0.18327 2.28911,-0.53904 0.67498,-0.35576 1.24396,-0.86605 1.70695,-1.53086 l 0.0575,0 0,1.37993 c 0.0215,0.68338 -0.12219,1.40809 -0.43123,2.17412 -0.30905,0.76602 -0.91277,1.18168 -1.81116,1.24697 -0.36236,-0.0132 -0.68698,-0.13057 -0.97385,-0.35218 -0.2869,-0.2216 -0.51809,-0.46836 -0.69356,-0.74027 -0.0599,-0.088 -0.1198,-0.17788 -0.17968,-0.26952 -0.0599,-0.0916 -0.10542,-0.17429 -0.13656,-0.24796 l -5.63472,0 c 0.33001,1.96808 1.25116,3.3001 2.76346,3.99606 1.51229,0.69595 3.18809,1.02176 5.02741,0.97745 2.29508,-0.0332 4.00083,-0.42999 5.11724,-1.19041 1.11639,-0.76042 1.84469,-1.68534 2.1849,-2.77477 0.34017,-1.08943 0.4935,-2.14425 0.45997,-3.16447 z"
         style="fill:#097db6;fill-opacity:1;stroke:none" />
      <path
         d="m 239.86961,531.40295 c -0.0563,0.77621 -0.30307,1.35837 -0.74028,1.74647 -0.43723,0.38811 -0.98584,0.58217 -1.64585,0.58216 -0.52707,-0.0144 -0.95351,-0.15811 -1.27932,-0.43123 -0.32582,-0.2731 -0.49352,-0.58934 -0.5031,-0.9487 10e-4,-0.48932 0.1641,-0.84748 0.48873,-1.07448 0.32461,-0.22699 0.80375,-0.40547 1.43743,-0.53544 0.38989,-0.0838 0.7744,-0.18207 1.15354,-0.29467 0.37911,-0.1126 0.74206,-0.25394 1.08885,-0.42405 z m 5.46223,-4.1398 c 0.0447,-0.97709 -0.0384,-1.90733 -0.24915,-2.79074 -0.21084,-0.88339 -0.81776,-1.60707 -1.82075,-2.17105 -1.00302,-0.56396 -2.67043,-0.85535 -5.00225,-0.87417 -0.88942,-0.007 -1.77703,0.0503 -2.66284,0.17249 -0.88582,0.1222 -1.69437,0.35218 -2.42566,0.68997 -0.74388,0.3384 -1.34759,0.83312 -1.81116,1.48414 -0.46358,0.65105 -0.72231,1.49793 -0.77621,2.54066 l 5.28974,0 c -0.008,-0.34018 0.13055,-0.67319 0.41685,-0.99902 0.28628,-0.3258 0.85646,-0.50069 1.71054,-0.52466 0.48033,-0.005 0.90677,0.0988 1.27931,0.31264 0.37253,0.21383 0.56897,0.5696 0.58935,1.06729 -0.0162,0.46119 -0.17789,0.78221 -0.48513,0.96308 -0.30726,0.18089 -0.66303,0.30067 -1.06729,0.35936 -1.0181,0.14748 -2.17621,0.3189 -3.47433,0.51428 -1.29812,0.19539 -2.43493,0.62236 -3.41043,1.28091 -0.9755,0.65856 -1.48836,1.75633 -1.53858,3.29331 0.0395,1.55901 0.557,2.70297 1.55242,3.43186 0.99542,0.7289 2.23161,1.08945 3.70857,1.08167 0.92953,0.012 1.80876,-0.1126 2.63768,-0.37373 0.82891,-0.26114 1.55002,-0.7307 2.16333,-1.40869 l 0.0575,0 c -0.0132,0.20963 -0.001,0.44441 0.0359,0.70434 0.0371,0.25994 0.0922,0.49472 0.1653,0.70435 l 5.80722,0 c -0.30547,-0.48394 -0.49953,-1.01818 -0.58216,-1.60274 -0.0827,-0.58455 -0.11861,-1.16192 -0.10781,-1.7321 z"
         style="fill:#097db6;fill-opacity:1;stroke:none" />
      <path
         d="m 246.398,536.72144 14.89177,0 0,-4.1398 -7.41714,0 6.81341,-6.41094 0,-4.36978 -13.65557,0 0,4.1398 6.35343,0 -6.9859,6.38218 z"
         style="fill:#097db6;fill-opacity:1;stroke:none" />
      <path
         d="m 262.68112,536.72144 5.69222,0 0,-14.92052 -5.69222,0 z m 5.69222,-20.5265 -5.69222,0 0,3.99606 5.69222,0 z"
         style="fill:#097db6;fill-opacity:1;stroke:none" />
      <path
         d="m 270.70793,536.72144 5.69222,0 0,-7.87712 c 0.0335,-1.16371 0.28987,-1.94112 0.76902,-2.33223 0.47914,-0.39109 0.97984,-0.57196 1.50211,-0.54263 0.80735,0.0144 1.32722,0.2875 1.55961,0.81934 0.23238,0.53186 0.33539,1.2362 0.30905,2.11302 l 0,7.81962 5.69222,0 0,-10.2345 c -0.0461,-1.70754 -0.5648,-2.97846 -1.55602,-3.81278 -0.99124,-0.8343 -2.17831,-1.24995 -3.56123,-1.24697 -1.12959,10e-4 -2.09027,0.19287 -2.88204,0.57497 -0.79179,0.38213 -1.45062,0.94752 -1.97647,1.69617 l -0.0575,0 0,-1.89741 -5.49098,0 z"
         style="fill:#097db6;fill-opacity:1;stroke:none" />
      <path
         d="m 293.28118,527.57939 c 0.12936,-0.80855 0.43841,-1.42664 0.92714,-1.85429 0.48872,-0.42762 1.15712,-0.64324 2.00522,-0.64684 0.74565,0.018 1.34578,0.26234 1.80038,0.73309 0.45457,0.47076 0.68815,1.06011 0.70074,1.76804 z m 10.89571,2.9611 c 0.0168,-2.92037 -0.65644,-5.16515 -2.01958,-6.73436 -1.36318,-1.56918 -3.51693,-2.36216 -6.46125,-2.37894 -2.39093,0.0569 -4.29313,0.82713 -5.70659,2.31066 -1.41348,1.48356 -2.13698,3.33904 -2.17052,5.56645 0.0503,2.50053 0.84808,4.4207 2.39332,5.7605 1.54523,1.3398 3.53607,2.01659 5.97252,2.03037 1.73209,0.005 3.2917,-0.37853 4.67883,-1.14995 1.3871,-0.77142 2.38612,-1.95969 2.99704,-3.56482 l -5.31849,0 c -0.24317,0.35876 -0.58337,0.62588 -1.02057,0.80137 -0.43723,0.17548 -0.89242,0.26293 -1.36556,0.26233 -0.89181,-0.015 -1.58058,-0.28689 -2.06631,-0.81574 -0.48573,-0.52885 -0.76483,-1.22481 -0.8373,-2.08787 z"
         style="fill:#097db6;fill-opacity:1;stroke:none" />
      <path
         d="m 305.80456,536.72144 5.69222,0 0,-20.5265 -5.69222,0 z"
         style="fill:#097db6;fill-opacity:1;stroke:none" />
      <path
         d="m 329.35559,521.80092 -5.69222,0 0,7.87711 c -0.0335,1.16373 -0.28989,1.94114 -0.76902,2.33223 -0.47916,0.39111 -0.97986,0.57198 -1.50212,0.54263 -0.80736,-0.0144 -1.32723,-0.28748 -1.55961,-0.81933 -0.23239,-0.53185 -0.33541,-1.23619 -0.30905,-2.11303 l 0,-7.81961 -5.69222,0 0,10.2345 c 0.0461,1.70754 0.56479,2.97847 1.55602,3.81278 0.99123,0.8343 2.1783,1.24996 3.56123,1.24697 1.12957,-0.001 2.09026,-0.19286 2.88205,-0.57497 0.79177,-0.38212 1.45059,-0.94751 1.97646,-1.69617 l 0.0575,0 0,1.89741 5.49098,0 z"
         style="fill:#097db6;fill-opacity:1;stroke:none" />
      <path
         d="m 331.68985,536.72144 5.69222,0 0,-14.92052 -5.69222,0 z m 5.69222,-20.5265 -5.69222,0 0,3.99606 5.69222,0 z"
         style="fill:#097db6;fill-opacity:1;stroke:none" />
      <path
         d="m 338.65296,536.72144 14.89176,0 0,-4.1398 -7.41713,0 6.81341,-6.41094 0,-4.36978 -13.65557,0 0,4.1398 6.35343,0 -6.9859,6.38218 z"
         style="fill:#097db6;fill-opacity:1;stroke:none" />
      <path
         d="m 363.90564,531.40295 c -0.0563,0.77621 -0.30307,1.35837 -0.74028,1.74647 -0.43723,0.38811 -0.98584,0.58217 -1.64585,0.58216 -0.52707,-0.0144 -0.95351,-0.15811 -1.27932,-0.43123 -0.32582,-0.2731 -0.49352,-0.58934 -0.5031,-0.9487 10e-4,-0.48932 0.1641,-0.84748 0.48873,-1.07448 0.32461,-0.22699 0.80375,-0.40547 1.43743,-0.53544 0.38989,-0.0838 0.7744,-0.18207 1.15354,-0.29467 0.37911,-0.1126 0.74206,-0.25394 1.08885,-0.42405 z m 5.46223,-4.1398 c 0.0447,-0.97709 -0.0383,-1.90733 -0.24915,-2.79074 -0.21084,-0.88339 -0.81776,-1.60707 -1.82075,-2.17105 -1.00302,-0.56396 -2.67043,-0.85535 -5.00225,-0.87417 -0.88942,-0.007 -1.77703,0.0503 -2.66284,0.17249 -0.88582,0.1222 -1.69437,0.35218 -2.42566,0.68997 -0.74388,0.3384 -1.34759,0.83312 -1.81116,1.48414 -0.46358,0.65105 -0.72231,1.49793 -0.77621,2.54066 l 5.28973,0 c -0.008,-0.34018 0.13056,-0.67319 0.41686,-0.99902 0.28628,-0.3258 0.85646,-0.50069 1.71054,-0.52466 0.48033,-0.005 0.90677,0.0988 1.27931,0.31264 0.37253,0.21383 0.56897,0.5696 0.58935,1.06729 -0.0162,0.46119 -0.17789,0.78221 -0.48513,0.96308 -0.30726,0.18089 -0.66303,0.30067 -1.0673,0.35936 -1.01809,0.14748 -2.1762,0.3189 -3.47432,0.51428 -1.29812,0.19539 -2.43493,0.62236 -3.41043,1.28091 -0.9755,0.65856 -1.48836,1.75633 -1.53858,3.29331 0.0395,1.55901 0.557,2.70297 1.55242,3.43186 0.99542,0.7289 2.23161,1.08945 3.70857,1.08167 0.92953,0.012 1.80876,-0.1126 2.63768,-0.37373 0.82891,-0.26114 1.55002,-0.7307 2.16333,-1.40869 l 0.0575,0 c -0.0132,0.20963 -10e-4,0.44441 0.0359,0.70434 0.0371,0.25994 0.0922,0.49472 0.1653,0.70435 l 5.80722,0 c -0.30547,-0.48394 -0.49953,-1.01818 -0.58216,-1.60274 -0.0827,-0.58455 -0.11861,-1.16192 -0.10781,-1.7321 z"
         style="fill:#097db6;fill-opacity:1;stroke:none" />
    </g>
  </g>
</svg>
