<svg width="92" height="32" viewBox="0 0 92 32" fill="none" xmlns="http://www.w3.org/2000/svg">
<path fill-rule="evenodd" clip-rule="evenodd" d="M8.86806 0L23.9276 14.6455L6.96327 31.3739L0.0869141 24.7397L9.71781 14.7024L1.792 6.93489L8.86806 0ZM24.8887 15.7011L31.7954 22.4699L24.7194 29.4046L17.8129 22.6358L24.8887 15.7011ZM84.1235 10.2664L84.2273 10.9347L86.0441 19.7802L84.0064 19.8065L83.1422 15.4035L80.1768 20.4468L77.5935 15.3687L76.3002 19.8895H74.3224L77.1122 10.3558L80.286 17.105L84.1235 10.2664ZM45.5966 10.2106L46.9493 11.4707L42.7239 15.4138L44.5634 19.3117L42.6718 20.1186L41.2554 16.8221L37.8961 20.1814L36.4688 19.0345L40.4914 15.1921L38.5252 11.2582L40.352 10.2744L41.9472 13.7711L45.5966 10.2106ZM71.2094 10.3611L73.7115 19.8535H71.7093L71.3608 18.3655H67.4545L66.3274 19.8647H64.2036L71.2004 10.3711L71.2007 10.374L71.2094 10.3611ZM59.73 10.95L66.4184 10.966L65.9008 12.7075L61.1693 12.696L60.6365 14.5135L64.7928 14.5236L64.2758 16.2393L60.1197 16.2295L59.5596 18.1108L63.843 18.0892L63.3252 19.8305L57.0985 19.8471L59.73 10.95ZM51.1136 10.9299L58.531 10.9477L57.9989 12.7526L55.275 12.7459L53.1755 19.8385L51.2058 19.8336L53.3056 12.7412L50.5812 12.7346L51.1136 10.9299ZM70.4329 14.4032L68.753 16.6377H70.956L70.4329 14.4032ZM46.5103 14.5444L50.4493 14.5529L49.8902 16.2324L45.9514 16.224L46.5103 14.5444ZM24.7193 0L31.7954 6.93489L24.9468 13.647L17.8705 6.7121L24.7193 0ZM89.8377 8.56048C91.0047 8.56048 91.913 9.47902 91.913 10.5946C91.913 11.7101 90.9929 12.6396 89.826 12.6396C88.6593 12.6396 87.751 11.7214 87.751 10.6057C87.751 9.48999 88.6705 8.56048 89.8377 8.56048ZM89.8377 8.7183C88.7453 8.7183 87.9235 9.56898 87.9235 10.6057C87.9235 11.6424 88.7395 12.4821 89.826 12.4821C90.9183 12.4821 91.7405 11.6309 91.7405 10.5946C91.7405 9.55785 90.9241 8.7183 89.8377 8.7183ZM89.9758 9.51272C90.4239 9.51272 90.7515 9.74357 90.7515 10.11C90.7515 10.4199 90.5538 10.6113 90.2594 10.6888L90.1768 10.7071L90.8782 11.5749H90.5563L89.8893 10.7466H89.2799V11.5749H89.0325V9.51272H89.9758ZM89.9638 9.74357H89.2799V10.5212H89.9355C90.2517 10.5212 90.493 10.386 90.493 10.1211C90.493 9.88445 90.2918 9.74357 89.9638 9.74357Z" fill="#0C0C0C"/>
</svg>
